<svg xmlns="http://www.w3.org/2000/svg" width="101.624" height="116" viewBox="0 0 101.624 116">
  <path id="customer_support_icon" d="M92.406,36.41V60.478C92.406,78.375,77.9,94,60,94S27.594,78.375,27.594,60.478V36.41a32.406,32.406,0,1,1,64.812,0Zm14.4,14.4V32.089C106.809,6.635,85.454-14,60-14S13.191,6.635,13.191,32.089c0,22.4,15.131,32.316,43.206,33.079M92.413,50.792l14.4.021M60,61.615a3.6,3.6,0,1,0,3.6,3.6A3.6,3.6,0,0,0,60,61.615Z" transform="translate(-9.191 18)" fill="none" stroke="#00baff" stroke-linecap="round" stroke-miterlimit="10" stroke-width="8"/>
</svg>
