<svg xmlns="http://www.w3.org/2000/svg" width="104" height="104" viewBox="0 0 104 104">
  <g id="marketing_automation_icon" transform="translate(-8 12)">
    <path id="marketing_automation" data-name="marketing automation" d="M108,46.464V33.536c-6.6-2.348-10.776-3-12.876-8.076h0c-2.108-5.084.4-8.536,3.388-14.828l-9.14-9.14C83.128,4.46,79.64,6.992,74.544,4.88h0C69.464,2.772,68.8-1.428,66.464-8H53.536c-2.328,6.54-3,10.768-8.076,12.876h0c-5.084,2.112-8.528-.4-14.828-3.388l-9.14,9.14c2.98,6.272,5.5,9.736,3.388,14.828S18.54,31.2,12,33.536V46.464c6.528,2.32,10.768,3,12.876,8.076C27,59.668,24.42,63.2,21.488,69.368l9.14,9.144c6.248-2.972,9.736-5.5,14.828-3.388h0C50.54,77.228,51.2,81.44,53.536,88H66.464c2.328-6.544,3-10.76,8.108-12.888h0c5.048-2.1,8.48.4,14.8,3.4l9.14-9.144c-2.976-6.252-5.5-9.732-3.4-14.824S101.468,48.788,108,46.464Zm-50.122-18.9,13.54,7.818a5.332,5.332,0,0,1,0,9.236l-13.54,7.818a5.332,5.332,0,0,1-8-4.618V32.182a5.331,5.331,0,0,1,8-4.618Z" fill="none" stroke="#00baff" stroke-linecap="round" stroke-miterlimit="10" stroke-width="8"/>
  </g>
</svg>
